Coordinates
version=1
nRows=12
nColumns=24
inDegrees=yes

Units are S.I. units (second, meters, Newtons, ...)
Angles are in degrees.

endheader
time	pelvis_tilt	pelvis_list	pelvis_rotation	pelvis_tx	pelvis_ty	pelvis_tz	hip_flexion_r	hip_adduction_r	hip_rotation_r	knee_angle_r	ankle_angle_r	subtalar_angle_r	mtp_angle_r	hip_flexion_l	hip_adduction_l	hip_rotation_l	knee_angle_l	ankle_angle_l	subtalar_angle_l	mtp_angle_l	lumbar_extension	lumbar_bending	lumbar_rotation
      3.34500000	     -5.75010244	      3.06278722	      7.48636415	     -0.41367255	     -0.03582086	     -0.16059941	     36.63121074	     -2.83328724	     -3.70671574	    -17.74680385	      3.88726037	      8.73102115	      9.21288134	     -8.47030579	      6.09886985	     -2.61653746	    -24.57362586	     33.57136768	     35.62277621	    -69.28172367	      4.27239549	     -6.64520519	    -10.61179358
      3.35000000	     -5.81945666	      2.81149129	      7.46909916	     -0.40610735	     -0.03615692	     -0.16011233	     36.62811424	     -2.46050476	     -3.67085893	    -18.43814602	      3.14819128	      8.34349750	      9.30978892	     -8.31901837	      5.58245686	     -2.85930252	    -25.62576676	     33.00330680	     36.10926852	    -69.30968823	      4.52723626	     -6.36433839	    -10.52678413
      3.35500000	     -5.89365581	      2.52567805	      7.42799693	     -0.39855874	     -0.03640428	     -0.15958649	     36.63112433	     -2.03181775	     -3.56942684	    -19.09277565	      2.29482798	      7.87748908	      9.36523663	     -8.09791085	      5.01873170	     -3.13393319	    -26.76221354	     32.34152113	     36.61005415	    -69.37294013	      4.78759373	     -6.04319129	    -10.42336117
      3.36000000	     -5.97961314	      2.20283795	      7.36362721	     -0.39100378	     -0.03657848	     -0.15903559	     36.65127094	     -1.54618527	     -3.41054306	    -19.73151525	      1.38132178	      7.37502811	      9.34969521	     -7.79912370	      4.40299447	     -3.45045702	    -27.98285036	     31.58162934	     37.14280827	    -69.48135142	      5.06516251	     -5.68142714	    -10.30299294
      3.36500000	     -6.05212877	      1.87773376	      7.23235346	     -0.38346520	     -0.03668657	     -0.15839194	     36.66266430	     -0.98671923	     -3.02077821	    -20.35534832	      0.36077028	      6.69531440	      9.31412586	     -7.46432965	      3.77878143	     -3.81641887	    -29.26437798	     30.68184685	     37.64854168	    -69.60828818	      5.32528197	     -5.30525556	    -10.12124597
      3.37000000	     -6.16091355	      1.49564832	      7.19831528	     -0.37590126	     -0.03673067	     -0.15792012	     36.72376999	     -0.47132151	     -2.94281717	    -21.03826085	     -0.44513786	      6.40158608	      9.13564296	     -7.00472136	      3.07184622	     -4.10031840	    -30.65054757	     29.67698168	     38.20441645	    -69.84153134	      5.63120164	     -4.87996088	    -10.04814676
      3.37500000	     -6.28292451	      1.12179712	      7.10122379	     -0.36832644	     -0.03679625	     -0.15732328	     36.80543535	      0.11390395	     -2.60416375	    -21.74320218	     -1.27283862	      5.93699779	      8.82970847	     -6.47909632	      2.36264463	     -4.43894489	    -32.09877754	     28.53323660	     38.74092656	    -70.14879852	      5.95254371	     -4.46473373	     -9.91968686
      3.38000000	     -6.38974334	      0.75452816	      6.97432511	     -0.36075347	     -0.03683321	     -0.15673687	     36.87126762	      0.72764901	     -2.14063649	    -22.47697764	     -2.05845568	      5.46004516	      8.40612526	     -5.93207182	      1.67634858	     -4.69544808	    -33.56880283	     27.25443207	     39.15655853	    -70.58142494	      6.25433164	     -4.04323379	     -9.77120833
      3.38500000	     -6.47842913	      0.38905928	      6.90293600	     -0.35315861	     -0.03685159	     -0.15622812	     36.90237367	      1.28800313	     -1.85883962	    -23.21328117	     -2.61591820	      5.18990813	      8.07572011	     -5.32814546	      0.96000331	     -4.95112656	    -35.11671953	     25.78751922	     39.58253839	    -71.08453816	      6.53667702	     -3.63051672	     -9.68603631
      3.39000000	     -6.57788580	      0.02073143	      6.80974010	     -0.34556622	     -0.03690118	     -0.15567051	     36.92980651	      1.88641322	     -1.45847216	    -23.93832003	     -3.16830938	      4.81099166	      7.64333740	     -4.66322467	      0.25249512	     -5.15195950	    -36.69321149	     24.18968301	     39.86451300	    -71.71651365	      6.83316483	     -3.22132813	     -9.57903921
      3.39500000	     -6.41538662	      0.10586622	      6.58116257	     -0.33773053	     -0.03591053	     -0.15469673	     36.56605227	      2.20590846	     -0.72015690	    -24.64066346	     -3.43725610	      4.61918491	      6.80754158	     -4.58228876	     -0.12639834	     -6.30728336	    -36.19739548	     29.57837823	     35.05053931	   -126.84660630	      6.81107219	     -3.27661811	     -9.31836517
      3.40000000	     -6.41626955	     -0.19499534	      6.43573160	     -0.33014703	     -0.03577601	     -0.15405133	     36.41208670	      2.78727112	     -0.26890070	    -25.26742582	     -3.80466071	      4.28320741	      6.38019449	     -4.00194586	     -0.76784399	     -6.57894366	    -37.40941769	     27.48139309	     34.59768984	   -131.55927645	      6.98121362	     -2.92449608	     -9.17919978
